<svg width="32" height="32" viewBox="0 0 32 32" fill="none" xmlns="http://www.w3.org/2000/svg">
<path d="M15.6172 0C24.2423 0 31.2344 6.99205 31.2344 15.6172V16.3828C31.2344 25.0079 24.2423 32 15.6172 32C6.99205 32 0 25.0079 0 16.3828V15.6172C0 6.99205 6.99205 0 15.6172 0Z" fill="#16A34A"/>
<path d="M15.6172 0C24.2423 0 31.2344 6.99205 31.2344 15.6172V16.3828C31.2344 25.0079 24.2423 32 15.6172 32C6.99205 32 0 25.0079 0 16.3828V15.6172C0 6.99205 6.99205 0 15.6172 0Z" stroke="#E5E7EB"/>
<g clip-path="url(#clip0_10_4361)">
<path d="M16.0469 11.375C13.8977 11.375 12.0793 12.7832 11.4613 14.7246C12.3801 14.2597 13.4164 14 14.5156 14H16.9219C17.1625 14 17.3594 14.1969 17.3594 14.4375C17.3594 14.6781 17.1625 14.875 16.9219 14.875H16.4844H14.5156C14.0617 14.875 13.6215 14.9269 13.1977 15.0226C12.4895 15.184 11.8305 15.4711 11.2453 15.8621C9.65664 16.9203 8.60938 18.7277 8.60938 20.7812V21.2187C8.60938 21.5824 8.90195 21.875 9.26562 21.875C9.6293 21.875 9.92188 21.5824 9.92188 21.2187V20.7812C9.92188 19.4496 10.4879 18.2519 11.393 17.4125C11.9344 19.4769 13.8129 21 16.0469 21H16.0742C19.6863 20.9808 22.6094 17.4207 22.6094 13.032C22.6094 11.8672 22.4043 10.7597 22.0324 9.7617C21.9613 9.57303 21.6852 9.58123 21.5895 9.75897C21.0754 10.7215 20.0582 11.375 18.8906 11.375H16.0469Z" fill="white"/>
</g>
<defs>
<clipPath id="clip0_10_4361">
<path d="M8.60938 8.75H22.6094V22.75H8.60938V8.75Z" fill="white"/>
</clipPath>
</defs>
</svg>
