<svg width="57" height="54" viewBox="0 0 57 54" fill="none" xmlns="http://www.w3.org/2000/svg">
<path fill-rule="evenodd" clip-rule="evenodd" d="M6.58203 25.36C6.17055 26.0631 6.0457 26.8013 6.13652 27.4927C6.26507 28.4715 6.01647 29.6687 5.10918 30.0577C4.56661 30.2903 4.21484 30.8238 4.21484 31.4142V47.6824C4.21484 48.6623 5.00923 49.4567 5.98915 49.4567H45.9102C47.0735 49.457 48.0174 50.4008 48.0176 51.5641C48.0176 52.7277 47.0736 53.6713 45.9102 53.6716H2.10742C0.943764 53.6716 0 52.7278 0 51.5641V29.0524C0.000234821 28.2098 0.502838 27.4478 1.27734 27.1159L6.24967 24.9841C6.48377 24.8837 6.71037 25.14 6.58203 25.36ZM54.0635 4.49383C54.7143 4.21524 55.4617 4.28186 56.0527 4.67157C56.6438 5.0614 56.9999 5.7223 57 6.43035V29.0524C57 30.2159 56.056 31.1596 54.8926 31.1598C53.7291 31.1596 52.7861 30.2159 52.7861 29.0524V12.3154C52.7861 11.0416 51.4837 10.1828 50.313 10.6845L33.976 17.6854C33.1228 18.051 32.1485 17.4638 31.5768 16.7325C31.4176 16.5288 31.2332 16.3413 31.0241 16.1756C30.6499 15.8789 30.493 15.3263 30.6376 14.8712C30.7142 14.6301 30.8729 14.4321 31.1054 14.3324L54.0635 4.49383Z" fill="#03695E"/>
<path d="M17.3265 19.7095H20.4031L24.4641 49.7328H14.127L17.3265 19.7095Z" fill="#514E3A"/>
<path d="M17.0557 1.41846C17.9494 -0.47295 20.6405 -0.47295 21.5342 1.41846L28.1572 15.4341C28.6135 16.3998 28.3868 17.4509 27.7539 18.1538L30.5352 24.0151C31.1936 25.4033 30.7343 26.9318 29.6719 27.7944L31.6133 32.0649C32.6883 34.4302 30.9585 37.1157 28.3604 37.1157H10.2295C7.63156 37.1155 5.90255 34.4301 6.97754 32.0649L8.91797 27.7954C7.85549 26.9327 7.39711 25.4034 8.05566 24.0151L10.8359 18.1528C10.2036 17.4499 9.97749 16.3994 10.4336 15.4341L17.0557 1.41846Z" fill="#6EAF5F"/>
<path d="M37.2567 34.6616H38.7899L40.8138 49.6242H35.6621L37.2567 34.6616Z" fill="#514E3A"/>
<path d="M37.1221 25.5454C37.5675 24.6028 38.9081 24.6028 39.3535 25.5454L42.6543 32.5298C42.8817 33.011 42.7665 33.533 42.4512 33.8833L43.8389 36.8071C44.1671 37.4989 43.9376 38.259 43.4082 38.689L44.377 40.8188C44.9122 41.9974 44.0504 43.3353 42.7559 43.3354H33.7197C32.4252 43.3353 31.5634 41.9974 32.0986 40.8188L33.0664 38.689C32.5375 38.2589 32.3086 37.4986 32.6367 36.8071L34.0234 33.8833C33.7084 33.533 33.594 33.0108 33.8213 32.5298L37.1221 25.5454Z" fill="#6EAF5F"/>
</svg>
