<svg width="32" height="32" viewBox="0 0 32 32" fill="none" xmlns="http://www.w3.org/2000/svg">
<path d="M0 16C0 7.16344 7.16344 0 16 0C24.8366 0 32 7.16344 32 16C32 24.8366 24.8366 32 16 32C7.16344 32 0 24.8366 0 16Z" fill="#15803D"/>
<path d="M10.3016 16.9638L15.2426 21.5767C15.4477 21.7681 15.7184 21.8748 16 21.8748C16.2816 21.8748 16.5523 21.7681 16.7574 21.5767L21.6984 16.9638C22.5297 16.19 23 15.1045 23 13.9697V13.8111C23 11.8998 21.6191 10.2701 19.7352 9.95564C18.4883 9.74783 17.2195 10.1552 16.3281 11.0467L16 11.3748L15.6719 11.0467C14.7805 10.1552 13.5117 9.74783 12.2648 9.95564C10.3809 10.2701 9 11.8998 9 13.8111V13.9697C9 15.1045 9.47031 16.19 10.3016 16.9638Z" fill="white"/>
</svg>
