<svg width="32" height="32" viewBox="0 0 32 32" fill="none" xmlns="http://www.w3.org/2000/svg">
<path d="M16 0C24.8366 0 32 7.16344 32 16C32 24.8366 24.8366 32 16 32C7.16344 32 0 24.8366 0 16C0 7.16344 7.16344 0 16 0Z" fill="#22C55E"/>
<path d="M16 0C24.8366 0 32 7.16344 32 16C32 24.8366 24.8366 32 16 32C7.16344 32 0 24.8366 0 16C0 7.16344 7.16344 0 16 0Z" stroke="#E5E7EB"/>
<g clip-path="url(#clip0_10_4370)">
<path d="M11.1875 8.75C11.7677 8.75 12.3241 8.98047 12.7343 9.3907C13.1445 9.80094 13.375 10.3573 13.375 10.9375C13.375 11.5177 13.1445 12.0741 12.7343 12.4843C12.3241 12.8945 11.7677 13.125 11.1875 13.125C10.6073 13.125 10.0509 12.8945 9.6407 12.4843C9.23047 12.0741 9 11.5177 9 10.9375C9 10.3573 9.23047 9.80094 9.6407 9.3907C10.0509 8.98047 10.6073 8.75 11.1875 8.75ZM21.25 8.75C21.8302 8.75 22.3866 8.98047 22.7968 9.3907C23.207 9.80094 23.4375 10.3573 23.4375 10.9375C23.4375 11.5177 23.207 12.0741 22.7968 12.4843C22.3866 12.8945 21.8302 13.125 21.25 13.125C20.6698 13.125 20.1134 12.8945 19.7032 12.4843C19.293 12.0741 19.0625 11.5177 19.0625 10.9375C19.0625 10.3573 19.293 9.80094 19.7032 9.3907C20.1134 8.98047 20.6698 8.75 21.25 8.75ZM7.25 16.9176C7.25 15.307 8.55703 14 10.1676 14H11.3352C11.7699 14 12.1828 14.0957 12.5547 14.2652C12.5191 14.4621 12.5027 14.6672 12.5027 14.875C12.5027 15.9195 12.9621 16.8574 13.6867 17.5C13.6812 17.5 13.6758 17.5 13.6676 17.5H7.83242C7.5125 17.5 7.25 17.2375 7.25 16.9176ZM18.3324 17.5C18.327 17.5 18.3215 17.5 18.3133 17.5C19.0406 16.8574 19.4973 15.9195 19.4973 14.875C19.4973 14.6672 19.4781 14.4648 19.4453 14.2652C19.8172 14.093 20.2301 14 20.6648 14H21.8324C23.443 14 24.75 15.307 24.75 16.9176C24.75 17.2402 24.4875 17.5 24.1676 17.5H18.3324ZM13.375 14.875C13.375 14.1788 13.6516 13.5111 14.1438 13.0188C14.6361 12.5266 15.3038 12.25 16 12.25C16.6962 12.25 17.3639 12.5266 17.8562 13.0188C18.3484 13.5111 18.625 14.1788 18.625 14.875C18.625 15.5712 18.3484 16.2389 17.8562 16.7312C17.3639 17.2234 16.6962 17.5 16 17.5C15.3038 17.5 14.6361 17.2234 14.1438 16.7312C13.6516 16.2389 13.375 15.5712 13.375 14.875ZM10.75 22.0199C10.75 20.0074 12.3824 18.375 14.3949 18.375H17.6051C19.6176 18.375 21.25 20.0074 21.25 22.0199C21.25 22.4219 20.9246 22.75 20.5199 22.75H11.4801C11.0781 22.75 10.75 22.4246 10.75 22.0199Z" fill="white"/>
</g>
<defs>
<clipPath id="clip0_10_4370">
<path d="M7.25 8.75H24.75V22.75H7.25V8.75Z" fill="white"/>
</clipPath>
</defs>
</svg>
